<?xml version="1.0" encoding="UTF-8"?>
<svg width="512" height="512" viewBox="0 0 512 512" fill="none" xmlns="http://www.w3.org/2000/svg">
  <circle cx="256" cy="256" r="250" fill="white" stroke="#1e3a8a" stroke-width="12"/>
  <path d="M256 56C145.5 56 56 145.5 56 256C56 366.5 145.5 456 256 456C366.5 456 456 366.5 456 256C456 145.5 366.5 56 256 56ZM256 86C352.5 86 431 164.5 431 261C431 357.5 352.5 436 256 436C159.5 436 81 357.5 81 261C81 164.5 159.5 86 256 86Z" fill="#1e3a8a"/>
  <path d="M406.3 156.5L335.7 109.7L261.7 122.3L256 63.5L175.2 112.8L175.2 180.5L107.5 203.5L122.3 271.5L190 308.8L193.8 377.8L256 426L329.7 363.5L404.7 346.5L437.2 235L406.3 156.5Z" fill="none" stroke="#1e3a8a" stroke-width="4" stroke-linecap="round" stroke-linejoin="round"/>
  <path d="M256 459C369.748 459 462 366.748 462 253C462 139.252 369.748 47 256 47C142.252 47 50 139.252 50 253C50 366.748 142.252 459 256 459Z" stroke="#1e3a8a" stroke-width="6"/>
  <path d="M114 203L178 180M335 110L406 156M406 156L437 235M437 235L405 346M405 346L330 364M330 364L256 426M256 426L194 378M194 378L190 309M190 309L122 271M122 271L108 203M178 180V113M178 113L256 63M256 63L335 110M335 110L262 122M262 122L178 180" stroke="#1e3a8a" stroke-width="6" stroke-linecap="round" stroke-linejoin="round"/>
  <path d="M255.9 298.5C280.3 298.5 300 278.8 300 254.4C300 230.1 280.3 210.4 255.9 210.4C231.6 210.4 211.8 230.1 211.8 254.4C211.8 278.8 231.6 298.5 255.9 298.5Z" fill="#1e3a8a"/>
</svg> 